<?xml version="1.0" standalone="no"?><!DOCTYPE svg PUBLIC "-//W3C//DTD SVG 1.1//EN" "http://www.w3.org/Graphics/SVG/1.1/DTD/svg11.dtd"><svg class="graph" width="1141" height="6.2361in" version="1.1" xmlns="http://www.w3.org/2000/svg" xmlns:xlink="http://www.w3.org/1999/xlink"><defs class="svg-crowbar"><style type="text/css"/></defs><defs><marker id="arrowhead" refX="2" refY="2" markerWidth="6" markerHeight="4" orient="auto" fill="black"><path d="M 0,0 V 4 L6,2 Z"/></marker><marker id="arrowheadRed" refX="2" refY="2" markerWidth="6" markerHeight="4" orient="auto" fill="red"><path d="M 0,0 V 4 L6,2 Z"/></marker></defs><rect rx="10" ry="10" r="10" opacity="1" stroke="#000000" fill="#d3d3d3" height="0.5in" width="0.93231in" y="0.25in" x="3.408845in" class="fragment"/><rect rx="10" ry="10" r="10" opacity="1" stroke="#000000" fill="#d3d3d3" height="2in" width="1.2820999999999998in" y="0.9306000000000001in" x="0.59506in" class="cluster"/><rect rx="10" ry="10" r="10" opacity="1" stroke="#ff0000" fill="#d3d3d3" height="4.0555in" width="3.7891500000000002in" y="0.9306000000000001in" x="1.95925in" class="cluster"/><rect rx="10" ry="10" r="10" opacity="1" stroke="#000000" fill="#d3d3d3" height="2in" width="1.5308000000000002in" y="3.9861000000000004in" x="5.8318in" class="cluster"/><text opacity="1" text-anchor="middle" dy="0.35em" font-family="sans-serif" font-size="13px" fill="black" y="0.5in" x="3.875in">Frag0</text><text opacity="1" text-anchor="middle" dy="0.35em" font-family="sans-serif" font-size="13px" fill="black" y="1.1181in" x="1.23611in">Frag1</text><text opacity="1" text-anchor="middle" dy="0.35em" font-family="sans-serif" font-size="13px" fill="black" y="1.1181in" x="3.853825in">Frag2</text><text opacity="1" text-anchor="middle" dy="0.35em" font-family="sans-serif" font-size="13px" fill="black" y="4.1736in" x="6.597200000000001in">Frag3</text><polyline stroke-width="3" fill="transparent" stroke-dasharray="0, 0" opacity="1" marker-end="url(#arrowhead)" stroke="#000000" points="372 72.21791999999999, 372 83.9232, 372 98.44991999999999, 372 111.6432" class="frag"/><polyline stroke-width="3" fill="transparent" stroke-dasharray="0, 0" opacity="1" marker-end="url(#arrowhead)" stroke="#000000" points="148.99200000000002 269.74080000000004, 164.5824 281.6064, 183.8112 296.2368, 200.67839999999998 309.072" class="frag"/><polyline stroke-width="3" fill="transparent" stroke-dasharray="0, 0" opacity="1" marker-end="url(#arrowhead)" stroke="#000000" points="537.84 365.4336, 544.0896 368.74559999999997, 550.2816 372.2976, 556.0032 376.0032, 570.9792 385.70879999999994, 586.2432 397.99679999999995, 599.2128 409.28639999999996" class="frag"/><defs><marker id="arrowhead" refX="2" refY="2" markerWidth="6" markerHeight="4" orient="auto" fill="black"><path d="M 0,0 V 4 L6,2 Z"/></marker><marker id="arrowheadRed" refX="2" refY="2" markerWidth="6" markerHeight="4" orient="auto" fill="red"><path d="M 0,0 V 4 L6,2 Z"/></marker></defs><defs><marker id="arrowhead" refX="2" refY="2" markerWidth="6" markerHeight="4" orient="auto" fill="black"><path d="M 0,0 V 4 L6,2 Z"/></marker><marker id="arrowheadRed" refX="2" refY="2" markerWidth="6" markerHeight="4" orient="auto" fill="red"><path d="M 0,0 V 4 L6,2 Z"/></marker></defs><rect rx="10" ry="10" r="10" opacity="1" stroke="#000000" fill="#ffffff" height="0.5in" width="0.83772in" y="1.3056in" x="0.81725in" class="operator"/><rect rx="10" ry="10" r="10" opacity="1" stroke="#000000" fill="#ffffff" height="0.5in" width="1.0321in" y="2.3056in" x="0.72006in" class="operator"/><text opacity="1" text-anchor="middle" dy="0.35em" font-family="sans-serif" font-size="13px" fill="black" y="1.5556in" x="1.23611in">Scan(S)</text><text opacity="1" text-anchor="middle" dy="0.35em" font-family="sans-serif" font-size="13px" fill="black" y="2.5556in" x="1.23611in">Shuffle(S)</text><polyline stroke-width="3" fill="transparent" stroke-dasharray="3, 3" opacity="1" marker-end="url(#arrowhead)" stroke="#000000" points="118.66656 173.7408, 118.66656 184.0224, 118.66656 196.3872, 118.66656 207.84959999999998" class="op"/><defs><marker id="arrowhead" refX="2" refY="2" markerWidth="6" markerHeight="4" orient="auto" fill="black"><path d="M 0,0 V 4 L6,2 Z"/></marker><marker id="arrowheadRed" refX="2" refY="2" markerWidth="6" markerHeight="4" orient="auto" fill="red"><path d="M 0,0 V 4 L6,2 Z"/></marker></defs><defs><marker id="arrowhead" refX="2" refY="2" markerWidth="6" markerHeight="4" orient="auto" fill="black"><path d="M 0,0 V 4 L6,2 Z"/></marker><marker id="arrowheadRed" refX="2" refY="2" markerWidth="6" markerHeight="4" orient="auto" fill="red"><path d="M 0,0 V 4 L6,2 Z"/></marker></defs><defs><marker id="arrowhead" refX="2" refY="2" markerWidth="6" markerHeight="4" orient="auto" fill="black"><path d="M 0,0 V 4 L6,2 Z"/></marker><marker id="arrowheadRed" refX="2" refY="2" markerWidth="6" markerHeight="4" orient="auto" fill="red"><path d="M 0,0 V 4 L6,2 Z"/></marker></defs><defs><marker id="arrowhead" refX="2" refY="2" markerWidth="6" markerHeight="4" orient="auto" fill="black"><path d="M 0,0 V 4 L6,2 Z"/></marker><marker id="arrowheadRed" refX="2" refY="2" markerWidth="6" markerHeight="4" orient="auto" fill="red"><path d="M 0,0 V 4 L6,2 Z"/></marker></defs><rect rx="10" ry="10" r="10" opacity="1" stroke="#000000" fill="#ffffff" height="0.5in" width="1.2808in" y="4.3611in" x="5.9568in" class="operator"/><rect rx="10" ry="10" r="10" opacity="1" stroke="#000000" fill="#ffffff" height="0.5in" width="0.75in" y="5.3611in" x="6.2222in" class="operator"/><text opacity="1" text-anchor="middle" dy="0.35em" font-family="sans-serif" font-size="13px" fill="black" y="4.6111in" x="6.5972in">CollectResult</text><text opacity="1" text-anchor="middle" dy="0.35em" font-family="sans-serif" font-size="13px" fill="black" y="5.6111in" x="6.5972in">Insert</text><polyline stroke-width="3" fill="transparent" stroke-dasharray="3, 3" opacity="1" marker-end="url(#arrowhead)" stroke="#000000" points="633.3312 467.0688, 633.3312 477.36, 633.3312 489.71520000000004, 633.3312 501.18719999999996" class="op"/><defs><marker id="arrowhead" refX="2" refY="2" markerWidth="6" markerHeight="4" orient="auto" fill="black"><path d="M 0,0 V 4 L6,2 Z"/></marker><marker id="arrowheadRed" refX="2" refY="2" markerWidth="6" markerHeight="4" orient="auto" fill="red"><path d="M 0,0 V 4 L6,2 Z"/></marker></defs><defs><marker id="arrowhead" refX="2" refY="2" markerWidth="6" markerHeight="4" orient="auto" fill="black"><path d="M 0,0 V 4 L6,2 Z"/></marker><marker id="arrowheadRed" refX="2" refY="2" markerWidth="6" markerHeight="4" orient="auto" fill="red"><path d="M 0,0 V 4 L6,2 Z"/></marker></defs><defs><marker id="arrowhead" refX="2" refY="2" markerWidth="6" markerHeight="4" orient="auto" fill="black"><path d="M 0,0 V 4 L6,2 Z"/></marker><marker id="arrowheadRed" refX="2" refY="2" markerWidth="6" markerHeight="4" orient="auto" fill="red"><path d="M 0,0 V 4 L6,2 Z"/></marker></defs><defs><marker id="arrowhead" refX="2" refY="2" markerWidth="6" markerHeight="4" orient="auto" fill="black"><path d="M 0,0 V 4 L6,2 Z"/></marker><marker id="arrowheadRed" refX="2" refY="2" markerWidth="6" markerHeight="4" orient="auto" fill="red"><path d="M 0,0 V 4 L6,2 Z"/></marker></defs><defs><marker id="arrowhead" refX="2" refY="2" markerWidth="6" markerHeight="4" orient="auto" fill="black"><path d="M 0,0 V 4 L6,2 Z"/></marker><marker id="arrowheadRed" refX="2" refY="2" markerWidth="6" markerHeight="4" orient="auto" fill="red"><path d="M 0,0 V 4 L6,2 Z"/></marker></defs><defs><marker id="arrowhead" refX="2" refY="2" markerWidth="6" markerHeight="4" orient="auto" fill="black"><path d="M 0,0 V 4 L6,2 Z"/></marker><marker id="arrowheadRed" refX="2" refY="2" markerWidth="6" markerHeight="4" orient="auto" fill="red"><path d="M 0,0 V 4 L6,2 Z"/></marker></defs><rect rx="10" ry="10" r="10" opacity="1" stroke="#000000" fill="#1f77b4" height="0.5in" width="0.88088in" y="1.3056in" x="3.43456in" class="operator"/><rect rx="10" ry="10" r="10" opacity="1" stroke="#000000" fill="#aec7e8" height="0.5in" width="0.8593in" y="3.3056in" x="2.08425in" class="operator"/><rect rx="10" ry="10" r="10" opacity="1" stroke="#000000" fill="#ff7f0e" height="0.5in" width="0.75in" y="4.3611in" x="2.8333in" class="operator"/><rect rx="10" ry="10" r="10" opacity="1" stroke="#000000" fill="#ffbb78" height="0.5in" width="0.79434in" y="3.3056in" x="3.47783in" class="operator"/><rect rx="10" ry="10" r="10" opacity="1" stroke="#000000" fill="#2ca02c" height="0.5in" width="0.75in" y="2.3056in" x="3.5in" class="operator"/><rect rx="10" ry="10" r="10" opacity="1" stroke="#000000" fill="#98df8a" height="0.5in" width="1.108in" y="3.3056in" x="4.5154in" class="operator"/><text opacity="1" text-anchor="middle" dy="0.35em" font-family="sans-serif" font-size="13px" fill="black" y="1.5556in" x="3.875in">GatherR</text><text opacity="1" text-anchor="middle" dy="0.35em" font-family="sans-serif" font-size="13px" fill="black" y="3.5556in" x="2.5139in">GatherS</text><text opacity="1" text-anchor="middle" dy="0.35em" font-family="sans-serif" font-size="13px" fill="black" y="4.6111in" x="3.2083in">Union</text><text opacity="1" text-anchor="middle" dy="0.35em" font-family="sans-serif" font-size="13px" fill="black" y="3.5556in" x="3.875in">Iterator</text><text opacity="1" text-anchor="middle" dy="0.35em" font-family="sans-serif" font-size="13px" fill="black" y="2.5556in" x="3.875in">Join</text><text opacity="1" text-anchor="middle" dy="0.35em" font-family="sans-serif" font-size="13px" fill="black" y="3.5556in" x="5.0694in">SendResult</text><polyline stroke-width="3" fill="transparent" stroke-dasharray="3, 3" opacity="1" marker-end="url(#arrowhead)" stroke="#000000" points="256.79999999999995 365.54879999999997, 265.2096 378, 275.7792 393.648, 285.1296 407.4816" class="op"/><polyline stroke-width="3" fill="transparent" stroke-dasharray="3, 3" opacity="1" marker-end="url(#arrowhead)" stroke="#000000" points="357.15840000000003 365.54879999999997, 349.1616 377.8752, 339.1296 393.34080000000006, 330.2208 407.06879999999995" class="op"/><polyline stroke-width="3" fill="transparent" stroke-dasharray="3, 3" opacity="1" marker-end="url(#arrowhead)" stroke="#000000" points="372 269.74080000000004, 372 280.0224, 372 292.3872, 372 303.8496" class="op"/><polyline stroke-width="3" fill="transparent" stroke-dasharray="3, 3" opacity="1" marker-end="url(#arrowhead)" stroke="#000000" points="372 173.7408, 372 184.0224, 372 196.3872, 372 207.84959999999998" class="op"/><polyline stroke-width="3" fill="transparent" stroke-dasharray="3, 3" opacity="1" marker-end="url(#arrowhead)" stroke="#000000" points="307.0368 418.5792, 306.71999999999997 393.0816, 308.5152 350.9088, 321.33119999999997 317.3376, 326.2848 304.3488, 334.224 291.5712, 342.3648 280.5312" class="op"/><polyline stroke-width="3" fill="transparent" stroke-dasharray="3, 3" opacity="1" marker-end="url(#arrowhead)" stroke="#000000" points="400.3488 269.74080000000004, 414.78720000000004 281.4912, 432.55679999999995 295.9584, 448.21439999999996 308.69759999999997" class="op"/><defs><marker id="arrowhead" refX="2" refY="2" markerWidth="6" markerHeight="4" orient="auto" fill="black"><path d="M 0,0 V 4 L6,2 Z"/></marker><marker id="arrowheadRed" refX="2" refY="2" markerWidth="6" markerHeight="4" orient="auto" fill="red"><path d="M 0,0 V 4 L6,2 Z"/></marker></defs><defs><marker id="arrowhead" refX="2" refY="2" markerWidth="6" markerHeight="4" orient="auto" fill="black"><path d="M 0,0 V 4 L6,2 Z"/></marker><marker id="arrowheadRed" refX="2" refY="2" markerWidth="6" markerHeight="4" orient="auto" fill="red"><path d="M 0,0 V 4 L6,2 Z"/></marker></defs><defs><marker id="arrowhead" refX="2" refY="2" markerWidth="6" markerHeight="4" orient="auto" fill="black"><path d="M 0,0 V 4 L6,2 Z"/></marker><marker id="arrowheadRed" refX="2" refY="2" markerWidth="6" markerHeight="4" orient="auto" fill="red"><path d="M 0,0 V 4 L6,2 Z"/></marker></defs></svg>