<?xml version="1.0" standalone="no"?><!DOCTYPE svg PUBLIC "-//W3C//DTD SVG 1.1//EN" "http://www.w3.org/Graphics/SVG/1.1/DTD/svg11.dtd"><svg class="graph" width="1141" height="7.0556in" version="1.1" xmlns="http://www.w3.org/2000/svg" xmlns:xlink="http://www.w3.org/1999/xlink"><defs class="svg-crowbar"><style type="text/css"/></defs><defs><marker id="arrowhead" refX="2" refY="2" markerWidth="6" markerHeight="4" orient="auto" fill="black"><path d="M 0,0 V 4 L6,2 Z"/></marker><marker id="arrowheadRed" refX="2" refY="2" markerWidth="6" markerHeight="4" orient="auto" fill="red"><path d="M 0,0 V 4 L6,2 Z"/></marker></defs><rect rx="10" ry="10" r="10" opacity="1" stroke="#000000" fill="#d3d3d3" height="0.5in" width="0.93231in" y="6.3056in" x="2.214445in" class="fragment"/><rect rx="10" ry="10" r="10" opacity="1" stroke="#000000" fill="#d3d3d3" height="0.5in" width="0.93231in" y="5.3056in" x="2.214445in" class="fragment"/><rect rx="10" ry="10" r="10" opacity="1" stroke="#000000" fill="#d3d3d3" height="0.5in" width="0.93231in" y="4.3056in" x="1.672745in" class="fragment"/><rect rx="10" ry="10" r="10" opacity="1" stroke="#ff0000" fill="#d3d3d3" height="4in" width="2in" y="0.9306000000000001in" x="2.7222in" class="cluster"/><rect rx="10" ry="10" r="10" opacity="1" stroke="#000000" fill="#d3d3d3" height="0.5in" width="0.93231in" y="3.3056in" x="1.672745in" class="fragment"/><rect rx="10" ry="10" r="10" opacity="1" stroke="#000000" fill="#d3d3d3" height="0.5in" width="0.93231in" y="3.3056in" x="0.49217500000000003in" class="fragment"/><rect rx="10" ry="10" r="10" opacity="1" stroke="#000000" fill="#d3d3d3" height="0.5in" width="0.93231in" y="0.25in" x="3.853245in" class="fragment"/><rect rx="10" ry="10" r="10" opacity="1" stroke="#000000" fill="#d3d3d3" height="0.5in" width="0.93231in" y="0.25in" x="2.672745in" class="fragment"/><rect rx="10" ry="10" r="10" opacity="1" stroke="#000000" fill="#d3d3d3" height="0.5in" width="0.93231in" y="2.3056in" x="1.672745in" class="fragment"/><rect rx="10" ry="10" r="10" opacity="1" stroke="#000000" fill="#d3d3d3" height="0.5in" width="0.93231in" y="2.3056in" x="0.49217500000000003in" class="fragment"/><text opacity="1" text-anchor="middle" dy="0.35em" font-family="sans-serif" font-size="13px" fill="black" y="6.5556in" x="2.6806in">Frag0</text><text opacity="1" text-anchor="middle" dy="0.35em" font-family="sans-serif" font-size="13px" fill="black" y="5.5556in" x="2.6806in">Frag1</text><text opacity="1" text-anchor="middle" dy="0.35em" font-family="sans-serif" font-size="13px" fill="black" y="4.5556in" x="2.1389in">Frag2</text><text opacity="1" text-anchor="middle" dy="0.35em" font-family="sans-serif" font-size="13px" fill="black" y="1.1181in" x="3.7222in">Frag3</text><text opacity="1" text-anchor="middle" dy="0.35em" font-family="sans-serif" font-size="13px" fill="black" y="3.5556in" x="2.1389in">Frag4</text><text opacity="1" text-anchor="middle" dy="0.35em" font-family="sans-serif" font-size="13px" fill="black" y="3.5556in" x="0.9583300000000001in">Frag5</text><text opacity="1" text-anchor="middle" dy="0.35em" font-family="sans-serif" font-size="13px" fill="black" y="0.5in" x="4.3194in">Frag6</text><text opacity="1" text-anchor="middle" dy="0.35em" font-family="sans-serif" font-size="13px" fill="black" y="0.5in" x="3.1389in">Frag7</text><text opacity="1" text-anchor="middle" dy="0.35em" font-family="sans-serif" font-size="13px" fill="black" y="2.5556in" x="2.1389in">Frag8</text><text opacity="1" text-anchor="middle" dy="0.35em" font-family="sans-serif" font-size="13px" fill="black" y="2.5556in" x="0.9583300000000001in">Frag9</text><polyline stroke-width="3" stroke-dasharray="0, 0" opacity="1" marker-end="url(#arrowhead)" stroke="#000000" points="257.3376 557.7408, 257.3376 568.0224000000001, 257.3376 580.3872, 257.3376 591.8496" class="frag"/><polyline stroke-width="3" stroke-dasharray="0, 0" opacity="1" marker-end="url(#arrowhead)" stroke="#000000" points="297.4848 461.74080000000004, 291.25440000000003 472.6368, 283.6992 485.8656, 276.8256 497.88480000000004" class="frag"/><polyline stroke-width="3" stroke-dasharray="0, 0" opacity="1" marker-end="url(#arrowhead)" stroke="#000000" points="217.6608 460.7808, 223.87199999999999 471.9456, 231.552 485.72159999999997, 238.4832 498.17280000000005" class="frag"/><polyline stroke-width="3" stroke-dasharray="0, 0" opacity="1" marker-end="url(#arrowhead)" stroke="#000000" points="115.48320000000001 362.0064, 131.59008 375.2736, 153.22560000000001 393.0816, 171.22560000000001 407.91360000000003" class="frag"/><polyline stroke-width="3" stroke-dasharray="0, 0" opacity="1" marker-end="url(#arrowhead)" stroke="#000000" points="205.33440000000002 365.74080000000004, 205.33440000000002 376.0224, 205.33440000000002 388.3872, 205.33440000000002 399.8496" class="frag"/><polyline stroke-width="3" stroke-dasharray="0, 0" opacity="1" marker-end="url(#arrowhead)" stroke="#000000" points="303.18719999999996 72.21791999999999, 304.1376 83.9232, 305.3184 98.44991999999999, 306.384 111.6432" class="frag"/><polyline stroke-width="3" stroke-dasharray="0, 0" opacity="1" marker-end="url(#arrowhead)" stroke="#000000" points="412.50239999999997 72.21791999999999, 411.39840000000004 83.9232, 410.01599999999996 98.44991999999999, 408.76800000000003 111.6432" class="frag"/><polyline stroke-width="3" stroke-dasharray="0, 0" opacity="1" marker-end="url(#arrowhead)" stroke="#000000" points="115.48320000000001 266.0064, 131.59008 279.2736, 153.22560000000001 297.0816, 171.22560000000001 311.9136" class="frag"/><polyline stroke-width="3" stroke-dasharray="0, 0" opacity="1" marker-end="url(#arrowhead)" stroke="#000000" points="205.33440000000002 269.74080000000004, 205.33440000000002 280.0224, 205.33440000000002 292.3872, 205.33440000000002 303.8496" class="frag"/><defs><marker id="arrowhead" refX="2" refY="2" markerWidth="6" markerHeight="4" orient="auto" fill="black"><path d="M 0,0 V 4 L6,2 Z"/></marker><marker id="arrowheadRed" refX="2" refY="2" markerWidth="6" markerHeight="4" orient="auto" fill="red"><path d="M 0,0 V 4 L6,2 Z"/></marker></defs><defs><marker id="arrowhead" refX="2" refY="2" markerWidth="6" markerHeight="4" orient="auto" fill="black"><path d="M 0,0 V 4 L6,2 Z"/></marker><marker id="arrowheadRed" refX="2" refY="2" markerWidth="6" markerHeight="4" orient="auto" fill="red"><path d="M 0,0 V 4 L6,2 Z"/></marker></defs><defs><marker id="arrowhead" refX="2" refY="2" markerWidth="6" markerHeight="4" orient="auto" fill="black"><path d="M 0,0 V 4 L6,2 Z"/></marker><marker id="arrowheadRed" refX="2" refY="2" markerWidth="6" markerHeight="4" orient="auto" fill="red"><path d="M 0,0 V 4 L6,2 Z"/></marker></defs><defs><marker id="arrowhead" refX="2" refY="2" markerWidth="6" markerHeight="4" orient="auto" fill="black"><path d="M 0,0 V 4 L6,2 Z"/></marker><marker id="arrowheadRed" refX="2" refY="2" markerWidth="6" markerHeight="4" orient="auto" fill="red"><path d="M 0,0 V 4 L6,2 Z"/></marker></defs><defs><marker id="arrowhead" refX="2" refY="2" markerWidth="6" markerHeight="4" orient="auto" fill="black"><path d="M 0,0 V 4 L6,2 Z"/></marker><marker id="arrowheadRed" refX="2" refY="2" markerWidth="6" markerHeight="4" orient="auto" fill="red"><path d="M 0,0 V 4 L6,2 Z"/></marker></defs><rect rx="10" ry="10" r="10" opacity="1" stroke="#000000" fill="#1f77b4" height="0.5in" width="0.75in" y="1.3056in" x="2.8472in" class="operator"/><rect rx="10" ry="10" r="10" opacity="1" stroke="#000000" fill="#aec7e8" height="0.5in" width="0.75in" y="1.3056in" x="3.8472in" class="operator"/><rect rx="10" ry="10" r="10" opacity="1" stroke="#000000" fill="#ff7f0e" height="0.5in" width="0.75in" y="2.3056in" x="2.8611in" class="operator"/><rect rx="10" ry="10" r="10" opacity="1" stroke="#000000" fill="#ffbb78" height="0.5in" width="0.75in" y="3.3056in" x="2.8611in" class="operator"/><rect rx="10" ry="10" r="10" opacity="1" stroke="#000000" fill="#2ca02c" height="0.5in" width="0.75in" y="4.3056in" x="2.8611in" class="operator"/><text opacity="1" text-anchor="middle" dy="0.35em" font-family="sans-serif" font-size="13px" fill="black" y="1.5556in" x="3.2222in">V20</text><text opacity="1" text-anchor="middle" dy="0.35em" font-family="sans-serif" font-size="13px" fill="black" y="1.5556in" x="4.2222in">V22</text><text opacity="1" text-anchor="middle" dy="0.35em" font-family="sans-serif" font-size="13px" fill="black" y="2.5556in" x="3.2361in">V24</text><text opacity="1" text-anchor="middle" dy="0.35em" font-family="sans-serif" font-size="13px" fill="black" y="3.5556in" x="3.2361in">V25</text><text opacity="1" text-anchor="middle" dy="0.35em" font-family="sans-serif" font-size="13px" fill="black" y="4.5556in" x="3.2361in">V8</text><polyline stroke-width="3" stroke-dasharray="3, 3" opacity="1" marker-end="url(#arrowhead)" stroke="#000000" points="381.936 173.7408, 370.35839999999996 185.1552, 356.1792 199.12320000000003, 343.536 211.59359999999998" class="op"/><polyline stroke-width="3" stroke-dasharray="3, 3" opacity="1" marker-end="url(#arrowhead)" stroke="#000000" points="309.6672 173.7408, 309.8112 184.0224, 309.98400000000004 196.3872, 310.1472 207.84959999999998" class="op"/><polyline stroke-width="3" stroke-dasharray="3, 3" opacity="1" marker-end="url(#arrowhead)" stroke="#000000" points="310.6656 269.74080000000004, 310.6656 280.0224, 310.6656 292.3872, 310.6656 303.8496" class="op"/><polyline stroke-width="3" stroke-dasharray="3, 3" opacity="1" marker-end="url(#arrowhead)" stroke="#000000" points="310.6656 365.74080000000004, 310.6656 376.0224, 310.6656 388.3872, 310.6656 399.8496" class="op"/></svg>