<?xml version="1.0" standalone="no"?><!DOCTYPE svg PUBLIC "-//W3C//DTD SVG 1.1//EN" "http://www.w3.org/Graphics/SVG/1.1/DTD/svg11.dtd"><svg class="graph" width="1141" height="5in" version="1.1" xmlns="http://www.w3.org/2000/svg" xmlns:xlink="http://www.w3.org/1999/xlink"><defs class="svg-crowbar"><style type="text/css"/></defs><defs><marker id="arrowhead" refX="2" refY="2" markerWidth="6" markerHeight="4" orient="auto" fill="black"><path d="M 0,0 V 4 L6,2 Z"/></marker><marker id="arrowheadRed" refX="2" refY="2" markerWidth="6" markerHeight="4" orient="auto" fill="red"><path d="M 0,0 V 4 L6,2 Z"/></marker></defs><rect rx="10" ry="10" r="10" opacity="1" stroke="#000000" fill="#d3d3d3" height="0.5in" width="0.93231in" y="4.25in" x="2.256045in" class="fragment"/><rect rx="10" ry="10" r="10" opacity="1" stroke="#000000" fill="#d3d3d3" height="0.5in" width="0.93231in" y="3.25in" x="2.256045in" class="fragment"/><rect rx="10" ry="10" r="10" opacity="1" stroke="#000000" fill="#d3d3d3" height="0.5in" width="0.93231in" y="2.25in" x="2.853245in" class="fragment"/><rect rx="10" ry="10" r="10" opacity="1" stroke="#000000" fill="#d3d3d3" height="0.5in" width="0.93231in" y="2.25in" x="1.672745in" class="fragment"/><rect rx="10" ry="10" r="10" opacity="1" stroke="#000000" fill="#d3d3d3" height="0.5in" width="0.93231in" y="1.25in" x="4.0338449999999995in" class="fragment"/><rect rx="10" ry="10" r="10" opacity="1" stroke="#000000" fill="#d3d3d3" height="0.5in" width="0.93231in" y="1.25in" x="2.853245in" class="fragment"/><rect rx="10" ry="10" r="10" opacity="1" stroke="#000000" fill="#d3d3d3" height="0.5in" width="0.93231in" y="1.25in" x="1.672745in" class="fragment"/><rect rx="10" ry="10" r="10" opacity="1" stroke="#000000" fill="#d3d3d3" height="0.5in" width="0.93231in" y="1.25in" x="0.49217500000000003in" class="fragment"/><rect rx="10" ry="10" r="10" opacity="1" stroke="#000000" fill="#d3d3d3" height="0.5in" width="0.93231in" y="0.25in" x="4.617145000000001in" class="fragment"/><rect rx="10" ry="10" r="10" opacity="1" stroke="#000000" fill="#d3d3d3" height="0.5in" width="0.93231in" y="0.25in" x="3.436645in" class="fragment"/><text opacity="1" text-anchor="middle" dy="0.35em" font-family="sans-serif" font-size="13px" fill="black" y="4.5in" x="2.7222in">Frag0</text><text opacity="1" text-anchor="middle" dy="0.35em" font-family="sans-serif" font-size="13px" fill="black" y="3.5in" x="2.7222in">Frag1</text><text opacity="1" text-anchor="middle" dy="0.35em" font-family="sans-serif" font-size="13px" fill="black" y="2.5in" x="3.3194in">Frag2</text><text opacity="1" text-anchor="middle" dy="0.35em" font-family="sans-serif" font-size="13px" fill="black" y="2.5in" x="2.1389in">Frag3</text><text opacity="1" text-anchor="middle" dy="0.35em" font-family="sans-serif" font-size="13px" fill="black" y="1.5in" x="4.5in">Frag4</text><text opacity="1" text-anchor="middle" dy="0.35em" font-family="sans-serif" font-size="13px" fill="black" y="1.5in" x="3.3194in">Frag5</text><text opacity="1" text-anchor="middle" dy="0.35em" font-family="sans-serif" font-size="13px" fill="black" y="1.5in" x="2.1389in">Frag6</text><text opacity="1" text-anchor="middle" dy="0.35em" font-family="sans-serif" font-size="13px" fill="black" y="1.5in" x="0.95833in">Frag7</text><text opacity="1" text-anchor="middle" dy="0.35em" font-family="sans-serif" font-size="13px" fill="black" y="0.5in" x="5.0833in">Frag8</text><text opacity="1" text-anchor="middle" dy="0.35em" font-family="sans-serif" font-size="13px" fill="black" y="0.5in" x="3.9028in">Frag9</text><polyline stroke-width="3" stroke-dasharray="0, 0" opacity="1" marker-end="url(#arrowhead)" stroke="#000000" points="261.33119999999997 360.40319999999997, 261.33119999999997 370.69440000000003, 261.33119999999997 383.0496, 261.33119999999997 394.51200000000006" class="frag"/><polyline stroke-width="3" stroke-dasharray="0, 0" opacity="1" marker-end="url(#arrowhead)" stroke="#000000" points="218.32319999999999 262.9824, 225.08159999999998 274.2432, 233.4912 288.2688, 241.08479999999997 300.9216" class="frag"/><polyline stroke-width="3" stroke-dasharray="0, 0" opacity="1" marker-end="url(#arrowhead)" stroke="#000000" points="305.3664 262.9824, 298.4544 274.2432, 289.8336 288.2688, 282.0672 300.9216" class="frag"/><polyline stroke-width="3" stroke-dasharray="0, 0" opacity="1" marker-end="url(#arrowhead)" stroke="#000000" points="318.6624 168.4032, 318.6624 178.6944, 318.6624 191.0496, 318.6624 202.51199999999997" class="frag"/><polyline stroke-width="3" stroke-dasharray="0, 0" opacity="1" marker-end="url(#arrowhead)" stroke="#000000" points="408.5184 164.6688, 392.4096 177.93599999999998, 370.7808 195.7536, 352.7808 210.57600000000002" class="frag"/><polyline stroke-width="3" stroke-dasharray="0, 0" opacity="1" marker-end="url(#arrowhead)" stroke="#000000" points="115.4832 164.6688, 131.59008 177.93599999999998, 153.22560000000001 195.7536, 171.22560000000001 210.57600000000002" class="frag"/><polyline stroke-width="3" stroke-dasharray="0, 0" opacity="1" marker-end="url(#arrowhead)" stroke="#000000" points="205.33440000000002 168.4032, 205.33440000000002 178.6944, 205.33440000000002 191.0496, 205.33440000000002 202.51199999999997" class="frag"/><polyline stroke-width="3" stroke-dasharray="0, 0" opacity="1" marker-end="url(#arrowhead)" stroke="#000000" points="387.96479999999997 70.98048, 394.88640000000004 82.24416, 403.49760000000003 96.26784, 411.264 108.9168" class="frag"/><polyline stroke-width="3" stroke-dasharray="0, 0" opacity="1" marker-end="url(#arrowhead)" stroke="#000000" points="475.00800000000004 70.98048, 468.2496 82.24416, 459.84000000000003 96.26784, 452.2464 108.9168" class="frag"/></svg>