<?xml version="1.0" standalone="no"?><!DOCTYPE svg PUBLIC "-//W3C//DTD SVG 1.1//EN" "http://www.w3.org/Graphics/SVG/1.1/DTD/svg11.dtd"><svg class="graph" width="1154" height="6.7222in" version="1.1" xmlns="http://www.w3.org/2000/svg" xmlns:xlink="http://www.w3.org/1999/xlink"><defs class="svg-crowbar"><style type="text/css"/></defs><defs><marker id="arrowhead" refX="2" refY="2" markerWidth="6" markerHeight="4" orient="auto" fill="black"><path d="M 0,0 V 4 L6,2 Z"/></marker><marker id="arrowheadRed" refX="2" refY="2" markerWidth="6" markerHeight="4" orient="auto" fill="red"><path d="M 0,0 V 4 L6,2 Z"/></marker></defs><rect rx="10" ry="10" r="10" opacity="1" stroke="#000000" fill="#d3d3d3" height="2.0000400000000003in" width="1.3037in" y="0.43056000000000005in" x="0.59815in" class="cluster"/><rect rx="10" ry="10" r="10" opacity="1" stroke="#000000" fill="#d3d3d3" height="2.0000400000000003in" width="1.2820999999999998in" y="0.43056000000000005in" x="1.98395in" class="cluster"/><rect rx="10" ry="10" r="10" opacity="1" stroke="#ff0000" fill="#d3d3d3" height="3in" width="2.2450899999999994in" y="2.5972in" x="0.8095600000000001in" class="cluster"/><rect rx="10" ry="10" r="10" opacity="1" stroke="#000000" fill="#d3d3d3" height="0.5in" width="0.93231in" y="5.9722in" x="1.464445in" class="fragment"/><text opacity="1" text-anchor="middle" dy="0.35em" font-family="sans-serif" font-size="13px" fill="black" y="0.61806in" x="1.25in">Frag0</text><text opacity="1" text-anchor="middle" dy="0.35em" font-family="sans-serif" font-size="13px" fill="black" y="0.61806in" x="2.625in">Frag1</text><text opacity="1" text-anchor="middle" dy="0.35em" font-family="sans-serif" font-size="13px" fill="black" y="2.7847in" x="1.9321049999999997in">Frag2</text><text opacity="1" text-anchor="middle" dy="0.35em" font-family="sans-serif" font-size="13px" fill="black" y="6.2222in" x="1.9306in">Frag3</text><polyline stroke-width="3" fill="transparent" stroke-dasharray="0, 0" opacity="1" marker-end="url(#arrowhead)" stroke="#000000" points="122.54496 221.856, 124.13087999999999 236.304, 126.20447999999999 255.1968, 128.0064 271.6128" class="frag"/><polyline stroke-width="3" fill="transparent" stroke-dasharray="0, 0" opacity="1" marker-end="url(#arrowhead)" stroke="#000000" points="249.45600000000002 221.856, 247.87199999999999 236.304, 245.79840000000002 255.1968, 243.9936 271.6128" class="frag"/><polyline stroke-width="3" fill="transparent" stroke-dasharray="0, 0" opacity="1" marker-end="url(#arrowhead)" stroke="#000000" points="185.3376 525.7344, 185.3376 536.0255999999999, 185.3376 548.3808, 185.3376 559.8528" class="frag"/><defs><marker id="arrowhead" refX="2" refY="2" markerWidth="6" markerHeight="4" orient="auto" fill="black"><path d="M 0,0 V 4 L6,2 Z"/></marker><marker id="arrowheadRed" refX="2" refY="2" markerWidth="6" markerHeight="4" orient="auto" fill="red"><path d="M 0,0 V 4 L6,2 Z"/></marker></defs><rect rx="10" ry="10" r="10" opacity="1" stroke="#000000" fill="#1f77b4" height="0.5in" width="0.88088in" y="2.9722in" x="0.9345600000000001in" class="operator"/><rect rx="10" ry="10" r="10" opacity="1" stroke="#000000" fill="#aec7e8" height="0.5in" width="0.8593in" y="2.9722in" x="2.07035in" class="operator"/><rect rx="10" ry="10" r="10" opacity="1" stroke="#000000" fill="#ff7f0e" height="0.5in" width="0.75in" y="3.9722in" x="1.5556in" class="operator"/><rect rx="10" ry="10" r="10" opacity="1" stroke="#000000" fill="#ffbb78" height="0.5in" width="1.108in" y="4.9722in" x="1.3766in" class="operator"/><text opacity="1" text-anchor="middle" dy="0.35em" font-family="sans-serif" font-size="13px" fill="black" y="3.2222in" x="1.375in">GatherR</text><text opacity="1" text-anchor="middle" dy="0.35em" font-family="sans-serif" font-size="13px" fill="black" y="3.2222in" x="2.5in">GatherS</text><text opacity="1" text-anchor="middle" dy="0.35em" font-family="sans-serif" font-size="13px" fill="black" y="4.2222in" x="1.9306in">Join</text><text opacity="1" text-anchor="middle" dy="0.35em" font-family="sans-serif" font-size="13px" fill="black" y="5.2222in" x="1.9306in">SendResult</text><polyline stroke-width="3" fill="transparent" stroke-dasharray="3, 3" opacity="1" marker-end="url(#arrowhead)" stroke="#000000" points="145.1808 333.7344, 151.3152 344.47679999999997, 158.7456 357.4752, 165.5328 369.36" class="op"/><polyline stroke-width="3" fill="transparent" stroke-dasharray="3, 3" opacity="1" marker-end="url(#arrowhead)" stroke="#000000" points="226.4832 333.7344, 220.19520000000003 344.47679999999997, 212.5824 357.4752, 205.62239999999997 369.36" class="op"/><polyline stroke-width="3" fill="transparent" stroke-dasharray="3, 3" opacity="1" marker-end="url(#arrowhead)" stroke="#000000" points="185.3376 429.7344, 185.3376 440.02559999999994, 185.3376 452.3808, 185.3376 463.8528" class="op"/><defs><marker id="arrowhead" refX="2" refY="2" markerWidth="6" markerHeight="4" orient="auto" fill="black"><path d="M 0,0 V 4 L6,2 Z"/></marker><marker id="arrowheadRed" refX="2" refY="2" markerWidth="6" markerHeight="4" orient="auto" fill="red"><path d="M 0,0 V 4 L6,2 Z"/></marker></defs><rect rx="10" ry="10" r="10" opacity="1" stroke="#000000" fill="#ffffff" height="0.5in" width="0.8593in" y="0.80556in" x="0.82035in" class="operator"/><rect rx="10" ry="10" r="10" opacity="1" stroke="#000000" fill="#ffffff" height="0.5in" width="1.0537in" y="1.8056in" x="0.72315in" class="operator"/><text opacity="1" text-anchor="middle" dy="0.35em" font-family="sans-serif" font-size="13px" fill="black" y="1.05556in" x="1.25in">Scan(R)</text><text opacity="1" text-anchor="middle" dy="0.35em" font-family="sans-serif" font-size="13px" fill="black" y="2.0556in" x="1.25in">Shuffle(R)</text><polyline stroke-width="3" fill="transparent" stroke-dasharray="3, 3" opacity="1" marker-end="url(#arrowhead)" stroke="#000000" points="120 125.74080000000001, 120 136.0224, 120 148.3872, 120 159.8496" class="op"/><defs><marker id="arrowhead" refX="2" refY="2" markerWidth="6" markerHeight="4" orient="auto" fill="black"><path d="M 0,0 V 4 L6,2 Z"/></marker><marker id="arrowheadRed" refX="2" refY="2" markerWidth="6" markerHeight="4" orient="auto" fill="red"><path d="M 0,0 V 4 L6,2 Z"/></marker></defs><rect rx="10" ry="10" r="10" opacity="1" stroke="#000000" fill="#ffffff" height="0.5in" width="0.83772in" y="0.80556in" x="2.20614in" class="operator"/><rect rx="10" ry="10" r="10" opacity="1" stroke="#000000" fill="#ffffff" height="0.5in" width="1.0321in" y="1.8056in" x="2.10895in" class="operator"/><text opacity="1" text-anchor="middle" dy="0.35em" font-family="sans-serif" font-size="13px" fill="black" y="1.05556in" x="2.625in">Scan(S)</text><text opacity="1" text-anchor="middle" dy="0.35em" font-family="sans-serif" font-size="13px" fill="black" y="2.0556in" x="2.625in">Shuffle(S)</text><polyline stroke-width="3" fill="transparent" stroke-dasharray="3, 3" opacity="1" marker-end="url(#arrowhead)" stroke="#000000" points="252 125.74080000000001, 252 136.0224, 252 148.3872, 252 159.8496" class="op"/><defs><marker id="arrowhead" refX="2" refY="2" markerWidth="6" markerHeight="4" orient="auto" fill="black"><path d="M 0,0 V 4 L6,2 Z"/></marker><marker id="arrowheadRed" refX="2" refY="2" markerWidth="6" markerHeight="4" orient="auto" fill="red"><path d="M 0,0 V 4 L6,2 Z"/></marker></defs></svg>