<?xml version="1.0" standalone="no"?><!DOCTYPE svg PUBLIC "-//W3C//DTD SVG 1.1//EN" "http://www.w3.org/Graphics/SVG/1.1/DTD/svg11.dtd"><svg class="graph" width="1141" height="23.625in" version="1.1" xmlns:xlink="http://www.w3.org/1999/xlink" xmlns="http://www.w3.org/2000/svg"><defs class="svg-crowbar"><style type="text/css"/></defs><defs class="svg-crowbar"><style type="text/css"/></defs><defs><marker id="arrowhead" refX="2" refY="2" markerWidth="6" markerHeight="4" orient="auto" fill="black"><path d="M 0,0 V 4 L6,2 Z"/></marker><marker id="arrowheadRed" refX="2" refY="2" markerWidth="6" markerHeight="4" orient="auto" fill="red"><path d="M 0,0 V 4 L6,2 Z"/></marker></defs><rect rx="10" ry="10" r="10" opacity="1" stroke="#000000" fill="#d3d3d3" height="6in" width="1in" y="17.375in" x="3.2639in" class="cluster"/><rect rx="10" ry="10" r="10" opacity="1" stroke="#000000" fill="#ffffff" height="0.5in" width="0.75in" y="17.75in" x="3.3889in" class="operator"/><rect rx="10" ry="10" r="10" opacity="1" stroke="#000000" fill="#ffffff" height="0.5in" width="0.75in" y="18.75in" x="3.3889in" class="operator"/><rect rx="10" ry="10" r="10" opacity="1" stroke="#000000" fill="#ffffff" height="0.5in" width="0.75in" y="19.75in" x="3.3889in" class="operator"/><rect rx="10" ry="10" r="10" opacity="1" stroke="#000000" fill="#ffffff" height="0.5in" width="0.75in" y="20.75in" x="3.3889in" class="operator"/><rect rx="10" ry="10" r="10" opacity="1" stroke="#000000" fill="#ffffff" height="0.5in" width="0.75in" y="21.75in" x="3.3889in" class="operator"/><rect rx="10" ry="10" r="10" opacity="1" stroke="#000000" fill="#ffffff" height="0.5in" width="0.75in" y="22.75in" x="3.3889in" class="operator"/><rect rx="10" ry="10" r="10" opacity="1" stroke="#000000" fill="#d3d3d3" height="5.999999999999998in" width="1.9999999999999996in" y="11.208in" x="2.7639in" class="cluster"/><rect rx="10" ry="10" r="10" opacity="1" stroke="#000000" fill="#ffffff" height="0.5in" width="0.75in" y="11.583in" x="3.8889in" class="operator"/><rect rx="10" ry="10" r="10" opacity="1" stroke="#000000" fill="#ffffff" height="0.5in" width="0.75in" y="11.583in" x="2.8889in" class="operator"/><rect rx="10" ry="10" r="10" opacity="1" stroke="#000000" fill="#ffffff" height="0.5in" width="0.75in" y="12.583in" x="3.3889in" class="operator"/><rect rx="10" ry="10" r="10" opacity="1" stroke="#000000" fill="#ffffff" height="0.5in" width="0.75in" y="13.583in" x="3.3889in" class="operator"/><rect rx="10" ry="10" r="10" opacity="1" stroke="#000000" fill="#ffffff" height="0.5in" width="0.75in" y="14.583in" x="3.3889in" class="operator"/><rect rx="10" ry="10" r="10" opacity="1" stroke="#000000" fill="#ffffff" height="0.5in" width="0.75in" y="15.583in" x="3.3889in" class="operator"/><rect rx="10" ry="10" r="10" opacity="1" stroke="#000000" fill="#ffffff" height="0.5in" width="0.75in" y="16.583in" x="3.3889in" class="operator"/><rect rx="10" ry="10" r="10" opacity="1" stroke="#000000" fill="#d3d3d3" height="3.0002999999999993in" width="2in" y="8.0417in" x="1.7222in" class="cluster"/><rect rx="10" ry="10" r="10" opacity="1" stroke="#000000" fill="#ffffff" height="0.5in" width="0.75in" y="8.4167in" x="2.8472in" class="operator"/><rect rx="10" ry="10" r="10" opacity="1" stroke="#000000" fill="#ffffff" height="0.5in" width="0.75in" y="8.4167in" x="1.8472in" class="operator"/><rect rx="10" ry="10" r="10" opacity="1" stroke="#000000" fill="#ffffff" height="0.5in" width="0.75in" y="9.4167in" x="2.8472in" class="operator"/><rect rx="10" ry="10" r="10" opacity="1" stroke="#000000" fill="#ffffff" height="0.5in" width="0.75in" y="10.417in" x="2.8472in" class="operator"/><rect rx="10" ry="10" r="10" opacity="1" stroke="#000000" fill="#d3d3d3" height="4.167in" width="2in" y="6.875in" x="3.8056in" class="cluster"/><rect rx="10" ry="10" r="10" opacity="1" stroke="#000000" fill="#ffffff" height="0.5in" width="0.75in" y="7.25in" x="4.9306in" class="operator"/><rect rx="10" ry="10" r="10" opacity="1" stroke="#000000" fill="#ffffff" height="0.5in" width="0.75in" y="7.25in" x="3.9306in" class="operator"/><rect rx="10" ry="10" r="10" opacity="1" stroke="#000000" fill="#ffffff" height="0.5in" width="0.75in" y="8.4167in" x="3.9306in" class="operator"/><rect rx="10" ry="10" r="10" opacity="1" stroke="#000000" fill="#ffffff" height="0.5in" width="0.75in" y="9.4167in" x="3.9306in" class="operator"/><rect rx="10" ry="10" r="10" opacity="1" stroke="#000000" fill="#ffffff" height="0.5in" width="0.75in" y="10.417in" x="3.9306in" class="operator"/><rect rx="10" ry="10" r="10" opacity="1" stroke="#000000" fill="#d3d3d3" height="5.2778in" width="2.00001in" y="2.5972in" x="0.63889in" class="cluster"/><rect rx="10" ry="10" r="10" opacity="1" stroke="#000000" fill="#ffffff" height="0.5in" width="0.75in" y="2.9722in" x="1.7639in" class="operator"/><rect rx="10" ry="10" r="10" opacity="1" stroke="#000000" fill="#ffffff" height="0.5in" width="0.75in" y="2.9722in" x="0.76389in" class="operator"/><rect rx="10" ry="10" r="10" opacity="1" stroke="#000000" fill="#ffffff" height="0.5in" width="0.75in" y="3.9722in" x="1.7639in" class="operator"/><rect rx="10" ry="10" r="10" opacity="1" stroke="#000000" fill="#ffffff" height="0.5in" width="0.75in" y="5.0278in" x="1.7639in" class="operator"/><rect rx="10" ry="10" r="10" opacity="1" stroke="#000000" fill="#ffffff" height="0.5in" width="0.75in" y="6.0833in" x="1.7639in" class="operator"/><rect rx="10" ry="10" r="10" opacity="1" stroke="#000000" fill="#ffffff" height="0.5in" width="0.75in" y="7.25in" x="1.7639in" class="operator"/><rect rx="10" ry="10" r="10" opacity="1" stroke="#000000" fill="#d3d3d3" height="2.1666999999999996in" width="1in" y="5.7083in" x="2.7222in" class="cluster"/><rect rx="10" ry="10" r="10" opacity="1" stroke="#000000" fill="#ffffff" height="0.5in" width="0.75in" y="6.0833in" x="2.8472in" class="operator"/><rect rx="10" ry="10" r="10" opacity="1" stroke="#000000" fill="#ffffff" height="0.5in" width="0.75in" y="7.25in" x="2.8472in" class="operator"/><rect rx="10" ry="10" r="10" opacity="1" stroke="#000000" fill="#d3d3d3" height="2.0555000000000003in" width="1in" y="4.6528in" x="3.8056in" class="cluster"/><rect rx="10" ry="10" r="10" opacity="1" stroke="#000000" fill="#ffffff" height="0.5in" width="0.75in" y="5.0278in" x="3.9306in" class="operator"/><rect rx="10" ry="10" r="10" opacity="1" stroke="#000000" fill="#ffffff" height="0.5in" width="0.75in" y="6.0833in" x="3.9306in" class="operator"/><rect rx="10" ry="10" r="10" opacity="1" stroke="#000000" fill="#d3d3d3" height="2.0555000000000003in" width="1in" y="4.6528in" x="4.8889in" class="cluster"/><rect rx="10" ry="10" r="10" opacity="1" stroke="#000000" fill="#ffffff" height="0.5in" width="0.75in" y="5.0278in" x="5.0139in" class="operator"/><rect rx="10" ry="10" r="10" opacity="1" stroke="#000000" fill="#ffffff" height="0.5in" width="0.75in" y="6.0833in" x="5.0139in" class="operator"/><rect rx="10" ry="10" r="10" opacity="1" stroke="#000000" fill="#d3d3d3" height="2.0000400000000003in" width="1in" y="0.43056000000000005in" x="0.59722in" class="cluster"/><rect rx="10" ry="10" r="10" opacity="1" stroke="#000000" fill="#ffffff" height="0.5in" width="0.75in" y="0.80556in" x="0.72222in" class="operator"/><rect rx="10" ry="10" r="10" opacity="1" stroke="#000000" fill="#ffffff" height="0.5in" width="0.75in" y="1.8056in" x="0.72222in" class="operator"/><rect rx="10" ry="10" r="10" opacity="1" stroke="#000000" fill="#d3d3d3" height="2.0000400000000003in" width="1in" y="0.43056000000000005in" x="1.6806in" class="cluster"/><rect rx="10" ry="10" r="10" opacity="1" stroke="#000000" fill="#ffffff" height="0.5in" width="0.75in" y="0.80556in" x="1.8056in" class="operator"/><rect rx="10" ry="10" r="10" opacity="1" stroke="#000000" fill="#ffffff" height="0.5in" width="0.75in" y="1.8056in" x="1.8056in" class="operator"/><text opacity="1" text-anchor="middle" dy="0.35em" font-family="sans-serif" font-size="13px" fill="black" y="17.5625in" x="3.7639in">Frag0</text><text opacity="1" text-anchor="middle" dy="0.35em" font-family="sans-serif" font-size="13px" fill="black" y="18in" x="3.7639in">V1</text><text opacity="1" text-anchor="middle" dy="0.35em" font-family="sans-serif" font-size="13px" fill="black" y="19in" x="3.7639in">V3</text><text opacity="1" text-anchor="middle" dy="0.35em" font-family="sans-serif" font-size="13px" fill="black" y="20in" x="3.7639in">V4</text><text opacity="1" text-anchor="middle" dy="0.35em" font-family="sans-serif" font-size="13px" fill="black" y="21in" x="3.7639in">V5</text><text opacity="1" text-anchor="middle" dy="0.35em" font-family="sans-serif" font-size="13px" fill="black" y="22in" x="3.7639in">V6</text><text opacity="1" text-anchor="middle" dy="0.35em" font-family="sans-serif" font-size="13px" fill="black" y="23in" x="3.7639in">V0</text><text opacity="1" text-anchor="middle" dy="0.35em" font-family="sans-serif" font-size="13px" fill="black" y="11.3955in" x="3.7638999999999996in">Frag1</text><text opacity="1" text-anchor="middle" dy="0.35em" font-family="sans-serif" font-size="13px" fill="black" y="11.833in" x="4.2639in">V7</text><text opacity="1" text-anchor="middle" dy="0.35em" font-family="sans-serif" font-size="13px" fill="black" y="11.833in" x="3.2639in">V9</text><text opacity="1" text-anchor="middle" dy="0.35em" font-family="sans-serif" font-size="13px" fill="black" y="12.833in" x="3.7639in">V11</text><text opacity="1" text-anchor="middle" dy="0.35em" font-family="sans-serif" font-size="13px" fill="black" y="13.833in" x="3.7639in">V12</text><text opacity="1" text-anchor="middle" dy="0.35em" font-family="sans-serif" font-size="13px" fill="black" y="14.833in" x="3.7639in">V13</text><text opacity="1" text-anchor="middle" dy="0.35em" font-family="sans-serif" font-size="13px" fill="black" y="15.833in" x="3.7639in">V14</text><text opacity="1" text-anchor="middle" dy="0.35em" font-family="sans-serif" font-size="13px" fill="black" y="16.833in" x="3.7639in">V2</text><text opacity="1" text-anchor="middle" dy="0.35em" font-family="sans-serif" font-size="13px" fill="black" y="8.2292in" x="2.7222in">Frag2</text><text opacity="1" text-anchor="middle" dy="0.35em" font-family="sans-serif" font-size="13px" fill="black" y="8.6667in" x="3.2222in">V15</text><text opacity="1" text-anchor="middle" dy="0.35em" font-family="sans-serif" font-size="13px" fill="black" y="8.6667in" x="2.2222in">V17</text><text opacity="1" text-anchor="middle" dy="0.35em" font-family="sans-serif" font-size="13px" fill="black" y="9.6667in" x="3.2222in">V19</text><text opacity="1" text-anchor="middle" dy="0.35em" font-family="sans-serif" font-size="13px" fill="black" y="10.667in" x="3.2222in">V10</text><text opacity="1" text-anchor="middle" dy="0.35em" font-family="sans-serif" font-size="13px" fill="black" y="7.0625in" x="4.8056in">Frag3</text><text opacity="1" text-anchor="middle" dy="0.35em" font-family="sans-serif" font-size="13px" fill="black" y="7.5in" x="5.3056in">V20</text><text opacity="1" text-anchor="middle" dy="0.35em" font-family="sans-serif" font-size="13px" fill="black" y="7.5in" x="4.3056in">V22</text><text opacity="1" text-anchor="middle" dy="0.35em" font-family="sans-serif" font-size="13px" fill="black" y="8.6667in" x="4.3056in">V24</text><text opacity="1" text-anchor="middle" dy="0.35em" font-family="sans-serif" font-size="13px" fill="black" y="9.6667in" x="4.3056in">V25</text><text opacity="1" text-anchor="middle" dy="0.35em" font-family="sans-serif" font-size="13px" fill="black" y="10.667in" x="4.3056in">V8</text><text opacity="1" text-anchor="middle" dy="0.35em" font-family="sans-serif" font-size="13px" fill="black" y="2.7847in" x="1.638895in">Frag4</text><text opacity="1" text-anchor="middle" dy="0.35em" font-family="sans-serif" font-size="13px" fill="black" y="3.2222in" x="2.1389in">V26</text><text opacity="1" text-anchor="middle" dy="0.35em" font-family="sans-serif" font-size="13px" fill="black" y="3.2222in" x="1.13889in">V28</text><text opacity="1" text-anchor="middle" dy="0.35em" font-family="sans-serif" font-size="13px" fill="black" y="4.2222in" x="2.1389in">V30</text><text opacity="1" text-anchor="middle" dy="0.35em" font-family="sans-serif" font-size="13px" fill="black" y="5.2778in" x="2.1389in">V31</text><text opacity="1" text-anchor="middle" dy="0.35em" font-family="sans-serif" font-size="13px" fill="black" y="6.3333in" x="2.1389in">V32</text><text opacity="1" text-anchor="middle" dy="0.35em" font-family="sans-serif" font-size="13px" fill="black" y="7.5in" x="2.1389in">V18</text><text opacity="1" text-anchor="middle" dy="0.35em" font-family="sans-serif" font-size="13px" fill="black" y="5.8958in" x="3.2222in">Frag5</text><text opacity="1" text-anchor="middle" dy="0.35em" font-family="sans-serif" font-size="13px" fill="black" y="6.3333in" x="3.2222in">V33</text><text opacity="1" text-anchor="middle" dy="0.35em" font-family="sans-serif" font-size="13px" fill="black" y="7.5in" x="3.2222in">V16</text><text opacity="1" text-anchor="middle" dy="0.35em" font-family="sans-serif" font-size="13px" fill="black" y="4.8403in" x="4.3056in">Frag6</text><text opacity="1" text-anchor="middle" dy="0.35em" font-family="sans-serif" font-size="13px" fill="black" y="5.2778in" x="4.3056in">V34</text><text opacity="1" text-anchor="middle" dy="0.35em" font-family="sans-serif" font-size="13px" fill="black" y="6.3333in" x="4.3056in">V23</text><text opacity="1" text-anchor="middle" dy="0.35em" font-family="sans-serif" font-size="13px" fill="black" y="4.8403in" x="5.3889in">Frag7</text><text opacity="1" text-anchor="middle" dy="0.35em" font-family="sans-serif" font-size="13px" fill="black" y="5.2778in" x="5.3889in">V35</text><text opacity="1" text-anchor="middle" dy="0.35em" font-family="sans-serif" font-size="13px" fill="black" y="6.3333in" x="5.3889in">V21</text><text opacity="1" text-anchor="middle" dy="0.35em" font-family="sans-serif" font-size="13px" fill="black" y="0.61806in" x="1.09722in">Frag8</text><text opacity="1" text-anchor="middle" dy="0.35em" font-family="sans-serif" font-size="13px" fill="black" y="1.05556in" x="1.09722in">V36</text><text opacity="1" text-anchor="middle" dy="0.35em" font-family="sans-serif" font-size="13px" fill="black" y="2.0556in" x="1.09722in">V29</text><text opacity="1" text-anchor="middle" dy="0.35em" font-family="sans-serif" font-size="13px" fill="black" y="0.61806in" x="2.1806in">Frag9</text><text opacity="1" text-anchor="middle" dy="0.35em" font-family="sans-serif" font-size="13px" fill="black" y="1.05556in" x="2.1806in">V37</text><text opacity="1" text-anchor="middle" dy="0.35em" font-family="sans-serif" font-size="13px" fill="black" y="2.0556in" x="2.1806in">V27</text><polyline stroke-width="3" stroke-dasharray="3, 3" opacity="1" marker-end="url(#arrowhead)" stroke="#000000" points="361.3344 1752.384, 361.3344 1762.656, 361.3344 1775.04, 361.3344 1786.56" class="op"/><polyline stroke-width="3" stroke-dasharray="3, 3" opacity="1" marker-end="url(#arrowhead)" stroke="#000000" points="361.3344 1848.384, 361.3344 1858.656, 361.3344 1871.04, 361.3344 1882.56" class="op"/><polyline stroke-width="3" stroke-dasharray="3, 3" opacity="1" marker-end="url(#arrowhead)" stroke="#000000" points="361.3344 1944.384, 361.3344 1954.656, 361.3344 1967.04, 361.3344 1978.56" class="op"/><polyline stroke-width="3" stroke-dasharray="3, 3" opacity="1" marker-end="url(#arrowhead)" stroke="#000000" points="361.3344 2040.384, 361.3344 2050.656, 361.3344 2063.04, 361.3344 2074.56" class="op"/><polyline stroke-width="3" stroke-dasharray="3, 3" opacity="1" marker-end="url(#arrowhead)" stroke="#000000" points="361.3344 2136.384, 361.3344 2146.656, 361.3344 2159.04, 361.3344 2170.56" class="op"/><polyline stroke-width="3" stroke-dasharray="3, 3" opacity="1" marker-end="url(#arrowhead)" stroke="#000000" points="325.20000000000005 1160.4479999999999, 330.6624 1171.008, 337.2672 1183.872, 343.3248 1195.68" class="op"/><polyline stroke-width="3" stroke-dasharray="3, 3" opacity="1" marker-end="url(#arrowhead)" stroke="#000000" points="397.4688 1160.4479999999999, 392.0064 1171.008, 385.4016 1183.872, 379.344 1195.68" class="op"/><polyline stroke-width="3" stroke-dasharray="3, 3" opacity="1" marker-end="url(#arrowhead)" stroke="#000000" points="361.3344 1256.4479999999999, 361.3344 1266.72, 361.3344 1279.008, 361.3344 1290.528" class="op"/><polyline stroke-width="3" stroke-dasharray="3, 3" opacity="1" marker-end="url(#arrowhead)" stroke="#000000" points="361.3344 1352.4479999999999, 361.3344 1362.72, 361.3344 1375.008, 361.3344 1386.528" class="op"/><polyline stroke-width="3" stroke-dasharray="3, 3" opacity="1" marker-end="url(#arrowhead)" stroke="#000000" points="361.3344 1448.4479999999999, 361.3344 1458.72, 361.3344 1471.008, 361.3344 1482.528" class="op"/><polyline stroke-width="3" stroke-dasharray="3, 3" opacity="1" marker-end="url(#arrowhead)" stroke="#000000" points="361.3344 1544.448, 361.3344 1554.72, 361.3344 1567.008, 361.3344 1578.5280000000002" class="op"/><polyline stroke-width="3" stroke-dasharray="3, 3" opacity="1" marker-end="url(#arrowhead)" stroke="#000000" points="237.06240000000003 856.4064, 248.8032 867.8208, 263.1744 881.7888, 276 894.2592000000001" class="op"/><polyline stroke-width="3" stroke-dasharray="3, 3" opacity="1" marker-end="url(#arrowhead)" stroke="#000000" points="309.33119999999997 856.4064, 309.33119999999997 866.6880000000001, 309.33119999999997 879.0528, 309.33119999999997 890.5151999999999" class="op"/><polyline stroke-width="3" stroke-dasharray="3, 3" opacity="1" marker-end="url(#arrowhead)" stroke="#000000" points="309.33119999999997 952.4064, 309.33119999999997 962.6880000000001, 309.33119999999997 975.0528, 309.33119999999997 986.496" class="op"/><polyline stroke-width="3" stroke-dasharray="3, 3" opacity="1" marker-end="url(#arrowhead)" stroke="#000000" points="413.3376 744.5183999999999, 413.3376 758.9664, 413.3376 777.8688, 413.3376 794.2752" class="op"/><polyline stroke-width="3" stroke-dasharray="3, 3" opacity="1" marker-end="url(#arrowhead)" stroke="#000000" points="488.976 744.5183999999999, 475.392 759.9936, 457.33439999999996 780.5568000000001, 442.26240000000007 797.7216" class="op"/><polyline stroke-width="3" stroke-dasharray="3, 3" opacity="1" marker-end="url(#arrowhead)" stroke="#000000" points="413.3376 856.4064, 413.3376 866.6880000000001, 413.3376 879.0528, 413.3376 890.5151999999999" class="op"/><polyline stroke-width="3" stroke-dasharray="3, 3" opacity="1" marker-end="url(#arrowhead)" stroke="#000000" points="413.3376 952.4064, 413.3376 962.6880000000001, 413.3376 975.0528, 413.3376 986.496" class="op"/><polyline stroke-width="3" stroke-dasharray="3, 3" opacity="1" marker-end="url(#arrowhead)" stroke="#000000" points="133.06368 333.7344, 144.8064 345.1488, 159.17759999999998 359.1264, 172.0032 371.59680000000003" class="op"/><polyline stroke-width="3" stroke-dasharray="3, 3" opacity="1" marker-end="url(#arrowhead)" stroke="#000000" points="205.33440000000002 333.7344, 205.33440000000002 344.0256, 205.33440000000002 356.3808, 205.33440000000002 367.8528" class="op"/><polyline stroke-width="3" stroke-dasharray="3, 3" opacity="1" marker-end="url(#arrowhead)" stroke="#000000" points="205.33440000000002 429.552, 205.33440000000002 441.25440000000003, 205.33440000000002 455.7792, 205.33440000000002 468.9792" class="op"/><polyline stroke-width="3" stroke-dasharray="3, 3" opacity="1" marker-end="url(#arrowhead)" stroke="#000000" points="205.33440000000002 530.88, 205.33440000000002 542.592, 205.33440000000002 557.1168, 205.33440000000002 570.3072" class="op"/><polyline stroke-width="3" stroke-dasharray="3, 3" opacity="1" marker-end="url(#arrowhead)" stroke="#000000" points="205.33440000000002 632.5248, 205.33440000000002 646.9632, 205.33440000000002 665.8656, 205.33440000000002 682.2816" class="op"/><polyline stroke-width="3" stroke-dasharray="3, 3" opacity="1" marker-end="url(#arrowhead)" stroke="#000000" points="309.33119999999997 632.5248, 309.33119999999997 646.9632, 309.33119999999997 665.8656, 309.33119999999997 682.2816" class="op"/><polyline stroke-width="3" stroke-dasharray="3, 3" opacity="1" marker-end="url(#arrowhead)" stroke="#000000" points="413.3376 530.88, 413.3376 542.592, 413.3376 557.1168, 413.3376 570.3072" class="op"/><polyline stroke-width="3" stroke-dasharray="3, 3" opacity="1" marker-end="url(#arrowhead)" stroke="#000000" points="517.3344 530.88, 517.3344 542.592, 517.3344 557.1168, 517.3344 570.3072" class="op"/><polyline stroke-width="3" stroke-dasharray="3, 3" opacity="1" marker-end="url(#arrowhead)" stroke="#000000" points="105.33312000000001 125.74080000000001, 105.33312000000001 136.0224, 105.33312000000001 148.3872, 105.33312000000001 159.8496" class="op"/><polyline stroke-width="3" stroke-dasharray="3, 3" opacity="1" marker-end="url(#arrowhead)" stroke="#000000" points="209.3376 125.74080000000001, 209.3376 136.0224, 209.3376 148.3872, 209.3376 159.8496" class="op"/><polyline stroke-width="3" stroke-dasharray="0, 0" opacity="1" marker-end="url(#arrowhead)" stroke="#000000" points="361.3344 1640.5439999999999, 361.3344 1654.944, 361.3344 1673.856, 361.3344 1690.272" class="frag"/><polyline stroke-width="3" stroke-dasharray="0, 0" opacity="1" marker-end="url(#arrowhead)" stroke="#000000" points="412.48319999999995 1048.5120000000002, 411.9552 1063.008, 411.264 1081.824, 410.66880000000003 1098.24" class="frag"/><polyline stroke-width="3" stroke-dasharray="0, 0" opacity="1" marker-end="url(#arrowhead)" stroke="#000000" points="310.1856 1048.5120000000002, 310.71360000000004 1063.008, 311.40479999999997 1081.824, 312 1098.24" class="frag"/><polyline stroke-width="3" stroke-dasharray="0, 0" opacity="1" marker-end="url(#arrowhead)" stroke="#000000" points="309.33119999999997 744.5183999999999, 309.33119999999997 758.9664, 309.33119999999997 777.8688, 309.33119999999997 794.2752" class="frag"/><polyline stroke-width="3" stroke-dasharray="0, 0" opacity="1" marker-end="url(#arrowhead)" stroke="#000000" points="207.0336 744.5183999999999, 208.08960000000002 758.9664, 209.47199999999998 777.8688, 210.67199999999997 794.2752" class="frag"/><polyline stroke-width="3" stroke-dasharray="0, 0" opacity="1" marker-end="url(#arrowhead)" stroke="#000000" points="515.6351999999999 632.5248, 514.5792 646.9632, 513.1967999999999 665.8656, 511.9968 682.2816" class="frag"/><polyline stroke-width="3" stroke-dasharray="0, 0" opacity="1" marker-end="url(#arrowhead)" stroke="#000000" points="413.3376 632.5248, 413.3376 646.9632, 413.3376 665.8656, 413.3376 682.2816" class="frag"/><polyline stroke-width="3" stroke-dasharray="0, 0" opacity="1" marker-end="url(#arrowhead)" stroke="#000000" points="208.4832 221.856, 207.9552 236.304, 207.26399999999998 255.1968, 206.6688 271.6128" class="frag"/><polyline stroke-width="3" stroke-dasharray="0, 0" opacity="1" marker-end="url(#arrowhead)" stroke="#000000" points="106.18176 221.856, 106.70975999999999 236.304, 107.40192 255.1968, 108.00192000000001 271.6128" class="frag"/></svg>